<svg xmlns="http://www.w3.org/2000/svg" width="30" height="36" viewBox="0 0 30 36" fill="none"><rect x="3.6" y="6.6" width="22.8" height="22.8" rx="11.4" fill="white"></rect><rect x="3.6" y="6.6" width="22.8" height="22.8" rx="11.4" stroke="#00AACE" stroke-width="1.2"></rect><path d="M10.6741 17.8001L11.8641 14.5241C11.9628 14.2541 12.1419 14.0207 12.3771 13.8555C12.6124 13.6904 12.8927 13.6012 13.1801 13.6001H15.0001V15.0001H13.1801L12.1581 17.8001H15.5251L15.7771 17.1001H15.0001V15.7001H18.5001V17.1001H17.2751L16.0011 20.6001H16.4701C16.7781 19.0391 18.0871 17.8841 19.7251 17.8071C21.6851 17.7091 23.4001 19.3401 23.4001 21.3001C23.4001 23.2601 21.8601 24.8001 19.9001 24.8001C18.1781 24.8001 16.7851 23.6171 16.4701 22.0001H13.5301C13.2221 23.5611 11.9131 24.7161 10.2751 24.7931C8.31515 24.8841 6.60015 23.2601 6.60015 21.2931C6.60015 19.3331 8.14015 17.7931 10.1001 17.7931H10.6741V17.8001ZM17.9261 22.0001C18.2061 22.8191 18.9691 23.4001 19.9001 23.4001C21.0761 23.4001 22.0001 22.4761 22.0001 21.3001C22.0001 20.1241 21.0761 19.2001 19.9001 19.2001C18.9691 19.2001 18.2061 19.7811 17.9261 20.6001H19.9001V22.0001H17.9261ZM13.5301 20.6001H14.5101L15.0211 19.2001H12.9001C13.2081 19.6061 13.4321 20.0751 13.5301 20.6001ZM10.1001 23.4001C11.2761 23.4001 12.2001 22.4761 12.2001 21.3001C12.2001 20.6491 11.9131 20.0891 11.4651 19.7041L10.7931 21.5521L9.47715 21.0761L10.1561 19.2071C10.1351 19.2071 10.1141 19.2001 10.0931 19.2001C8.91715 19.2001 7.99315 20.1241 7.99315 21.3001C7.99315 22.4761 8.92415 23.4001 10.1001 23.4001Z" fill="black"></path><path d="M17.6258 14.8498C17.5833 14.8501 17.5415 14.8322 17.5055 14.7982C17.4694 14.7643 17.4406 14.7157 17.4222 14.6581C17.4038 14.6005 17.3967 14.5362 17.4017 14.4728C17.4067 14.4094 17.4236 14.3494 17.4504 14.2999L19.6771 10.8583C19.6938 10.8293 19.7165 10.8098 19.7416 10.8028C19.7667 10.7959 19.7926 10.8019 19.8151 10.82C19.8376 10.838 19.8553 10.867 19.8654 10.9022C19.8754 10.9373 19.8772 10.9766 19.8705 11.0135L19.4386 13.0447C19.4259 13.0958 19.4216 13.1508 19.4262 13.205C19.4307 13.2591 19.444 13.3108 19.4648 13.3556C19.4855 13.4004 19.5133 13.4369 19.5455 13.4621C19.5778 13.4873 19.6137 13.5004 19.6501 13.5002H21.2245C21.267 13.5 21.3088 13.5179 21.3448 13.5518C21.3809 13.5858 21.4097 13.6344 21.4281 13.692C21.4465 13.7496 21.4536 13.8138 21.4486 13.8772C21.4436 13.9406 21.4267 14.0006 21.3999 14.0502L19.1732 17.4918C19.1565 17.5207 19.1338 17.5402 19.1087 17.5472C19.0836 17.5542 19.0577 17.5481 19.0352 17.5301C19.0127 17.512 18.995 17.483 18.9849 17.4479C18.9748 17.4127 18.9731 17.3735 18.9798 17.3366L19.4117 15.3053C19.4244 15.2542 19.4287 15.1992 19.4241 15.1451C19.4196 15.0909 19.4063 15.0392 19.3855 14.9944C19.3648 14.9497 19.337 14.9131 19.3048 14.8879C19.2725 14.8627 19.2366 14.8497 19.2002 14.8498H17.6258Z" fill="#00AACE"></path></svg>