<svg xmlns="http://www.w3.org/2000/svg" width="30" height="36" viewBox="0 0 30 36" fill="none"><g clip-path="url(#clip0_5392_10919)"><rect x="3" y="6" width="24" height="24" rx="12" fill="white"></rect><path d="M3.8741 20.6L5.0641 17.324C5.16278 17.054 5.34181 16.8207 5.57709 16.6555C5.81238 16.4903 6.09261 16.4011 6.3801 16.4H8.2001V17.8H6.3801L5.3581 20.6H8.7251L8.9771 19.9H8.2001V18.5H11.7001V19.9H10.4751L9.2011 23.4H9.6701C9.9781 21.839 11.2871 20.684 12.9251 20.607C14.8851 20.509 16.6001 22.14 16.6001 24.1C16.6001 26.06 15.0601 27.6 13.1001 27.6C11.3781 27.6 9.9851 26.417 9.6701 24.8H6.7301C6.4221 26.361 5.1131 27.516 3.4751 27.593C1.5151 27.684 -0.199903 26.06 -0.199903 24.093C-0.199903 22.133 1.3401 20.593 3.3001 20.593H3.8741V20.6ZM11.1261 24.8C11.4061 25.619 12.1691 26.2 13.1001 26.2C14.2761 26.2 15.2001 25.276 15.2001 24.1C15.2001 22.924 14.2761 22 13.1001 22C12.1691 22 11.4061 22.581 11.1261 23.4H13.1001V24.8H11.1261ZM6.7301 23.4H7.7101L8.2211 22H6.1001C6.4081 22.406 6.6321 22.875 6.7301 23.4ZM3.3001 26.2C4.4761 26.2 5.4001 25.276 5.4001 24.1C5.4001 23.449 5.1131 22.889 4.6651 22.504L3.9931 24.352L2.6771 23.876L3.3561 22.007C3.3351 22.007 3.3141 22 3.2931 22C2.1171 22 1.1931 22.924 1.1931 24.1C1.1931 25.276 2.1241 26.2 3.3001 26.2Z" fill="#808080"></path><path d="M29.9099 21.0401C29.9099 21.422 29.7582 21.7883 29.4881 22.0583C29.2181 22.3284 28.8518 22.4801 28.4699 22.4801C28.088 22.4801 27.7217 22.3284 27.4517 22.0583C27.1816 21.7883 27.0299 21.422 27.0299 21.0401C27.0299 20.6582 27.1816 20.2919 27.4517 20.0218C27.7217 19.7518 28.088 19.6001 28.4699 19.6001C28.8518 19.6001 29.2181 19.7518 29.4881 20.0218C29.7582 20.2919 29.9099 20.6582 29.9099 21.0401Z" stroke="#808080" stroke-width="1.35" stroke-linecap="round"></path><circle cx="19.2899" cy="20.7981" r="1.89" stroke="#808080" stroke-width="1.35"></circle><path d="M27.0298 21.04H23.0698C23.0698 20.6816 23.0131 20.2605 22.8996 19.8315C22.6268 18.8002 21.9058 17.8969 20.8983 17.5461C20.5552 17.4267 20.1945 17.3452 19.8298 17.2881V13.84C19.8298 13.4581 19.9815 13.0918 20.2516 12.8218C20.5216 12.5517 20.8879 12.4 21.2698 12.4H21.9898" stroke="#808080" stroke-width="1.35" stroke-linecap="square"></path><path d="M15.6396 16.5596H18.2002V17.8398H15.6396V20.4004H14.3594V17.8398H11.7998V16.5596H14.3594V14H15.6396V16.5596Z" fill="#808080"></path></g><rect x="3.6" y="6.6" width="22.8" height="22.8" rx="11.4" stroke="#808080" stroke-width="1.2"></rect><path d="M23.2144 26.2145C19.7929 22.7931 10.995 13.9951 7.02371 10.0238" stroke="#808080" stroke-width="1.39431"></path><defs><clipPath id="clip0_5392_10919"><rect x="3" y="6" width="24" height="24" rx="12" fill="white"></rect></clipPath></defs></svg>